<?xml version="1.0" standalone="no"?>
<!DOCTYPE svg PUBLIC "-//W3C//DTD SVG 20010904//EN"
 "http://www.w3.org/TR/2001/REC-SVG-20010904/DTD/svg10.dtd">
<svg version="1.0" xmlns="http://www.w3.org/2000/svg"
 width="80.000000pt" height="80.000000pt" viewBox="0 0 80.000000 80.000000"
 preserveAspectRatio="xMidYMid meet">

<g transform="translate(0.000000,80.000000) scale(0.100000,-0.100000)"
fill="#000000" stroke="none">
<path d="M9 764 c-16 -20 -3 -32 63 -59 l52 -21 37 -204 c27 -144 43 -208 54
-216 14 -11 15 -18 4 -54 -11 -36 -11 -44 2 -54 11 -7 14 -22 11 -46 -5 -51
23 -84 73 -84 51 0 79 34 72 86 l-5 38 81 0 c63 0 78 -3 69 -12 -27 -27 -12
-82 29 -104 59 -30 115 9 106 75 -4 33 -2 40 15 44 11 3 18 12 16 19 -4 10
-52 14 -216 16 -117 1 -212 4 -212 6 0 2 5 17 11 35 l11 31 198 0 c146 0 200
3 207 13 5 6 34 87 63 180 43 132 51 170 42 179 -9 9 -91 15 -268 22 -263 9
-293 6 -265 -27 9 -12 58 -16 216 -22 113 -4 218 -10 234 -14 l29 -6 -44 -138
-45 -137 -203 0 -202 0 -33 183 c-42 236 -40 227 -65 237 -11 4 -44 17 -73 29
-45 18 -53 18 -64 5z m325 -649 c9 -25 -5 -45 -30 -45 -26 0 -40 20 -30 45 7
19 52 19 60 0z m281 -15 c0 -20 -6 -26 -26 -28 -28 -3 -43 16 -32 44 3 9 15
14 32 12 20 -2 26 -8 26 -28z"/>
</g>
</svg>
